<?xml version="1.0" encoding="UTF-8"?>
<svg width="32" height="32" viewBox="0 0 32 32" fill="none" xmlns="http://www.w3.org/2000/svg">
  <circle cx="12" cy="16" r="6" stroke="#606C38" stroke-width="2" fill="none"/>
  <circle cx="20" cy="16" r="6" stroke="#606C38" stroke-width="2" fill="none"/>
  <path d="M16 10C16.5523 10 17 10.4477 17 11V13C17 13.5523 16.5523 14 16 14C15.4477 14 15 13.5523 15 13V11C15 10.4477 15.4477 10 16 10Z" fill="#606C38"/>
  <path d="M16 18C16.5523 18 17 18.4477 17 19V21C17 21.5523 16.5523 22 16 22C15.4477 22 15 21.5523 15 21V19C15 18.4477 15.4477 18 16 18Z" fill="#606C38"/>
</svg>
